<?xml version="1.0" encoding="iso-8859-1"?>
<!-- Generator: Adobe Illustrator 19.0.0, SVG Export Plug-In . SVG Version: 6.00 Build 0)  -->
<svg version="1.1" id="Capa_1" xmlns="http://www.w3.org/2000/svg" xmlns:xlink="http://www.w3.org/1999/xlink" x="0px" y="0px"
	 viewBox="0 0 512 512" style="enable-background:new 0 0 512 512;" xml:space="preserve">
<g>
	<g>
		<path d="M343.461,164.276c-0.884-0.771-2.064-1.45-3.537-2.038v8.152c1.768-0.146,3.021-0.513,3.758-1.102
			c0.736-0.587,1.105-1.358,1.105-2.313C344.787,165.947,344.345,165.047,343.461,164.276z"/>
	</g>
</g>
<g>
	<g>
		<path d="M329.755,132.822c0,1.102,0.368,2.002,1.105,2.699c0.736,0.699,1.841,1.341,3.316,1.928v-8.373
			C331.228,129.445,329.755,130.693,329.755,132.822z"/>
	</g>
</g>
<g>
	<g>
		<path d="M336,40c-61.206,0-111,49.794-111,111s49.794,111,111,111s111-49.794,111-111S397.206,40,336,40z M365.733,175.954
			c-1.511,3.048-3.501,5.546-5.969,7.491c-2.47,1.947-5.289,3.415-8.456,4.406c-3.169,0.992-6.449,1.598-9.838,1.818V203h-8.843
			v-13.551c-5.084-0.44-10.133-1.432-15.143-2.975c-5.012-1.542-9.506-3.487-13.485-5.839l9.285-18.839
			c1.99,1.25,4.126,2.424,6.412,3.525c1.915,0.956,4.145,1.892,6.687,2.81c2.542,0.919,5.14,1.562,7.793,1.928v-9.695
			c-2.285-0.587-4.57-1.284-6.853-2.093c-3.465-1.174-6.449-2.441-8.954-3.801c-2.506-1.358-4.57-2.9-6.19-4.627
			c-1.622-1.725-2.819-3.69-3.593-5.894c-0.774-2.204-1.16-4.737-1.16-7.602c0-3.966,0.663-7.473,1.99-10.522
			c1.326-3.047,3.131-5.673,5.416-7.877c2.283-2.204,4.955-3.966,8.014-5.288c3.057-1.322,6.318-2.166,9.782-2.534V99h8.843v11.237
			c2.432,0.294,4.789,0.735,7.074,1.322c2.283,0.589,4.477,1.267,6.577,2.038c2.1,0.771,4.071,1.581,5.914,2.424
			c1.841,0.845,3.537,1.635,5.085,2.368l-9.285,17.737c-1.622-1.027-3.391-1.983-5.306-2.864c-1.622-0.807-3.445-1.56-5.471-2.258
			c-2.027-0.697-4.072-1.229-6.135-1.598v9.915c0.663,0.148,1.363,0.35,2.1,0.606c0.736,0.258,1.51,0.496,2.321,0.716
			c3.61,1.102,6.871,2.314,9.782,3.636c2.91,1.322,5.397,2.883,7.461,4.682c2.062,1.801,3.647,3.985,4.753,6.555
			c1.105,2.572,1.658,5.693,1.658,9.365C367.999,169.216,367.242,172.906,365.733,175.954z"/>
	</g>
</g>
<g>
	<g>
		<rect y="232" width="80" height="240"/>
	</g>
</g>
<g>
	<g>
		<path d="M495.314,338.424c-10.604-7.836-23.915-10.111-36.517-6.237c-17.807,6.081-33.984,16.16-47.289,29.466l-12.449,12.449
			C389.338,385.486,375.258,392,360.309,392H250.727l-0.281-0.009c-13.121-0.058-25.438-5.177-34.728-14.457l21.203-21.225
			c3.673,3.67,8.554,5.687,13.752,5.687c0.031,0,109.636,0.004,109.636,0.004c6.242,0,12.126-2.779,16.144-7.625l30.9-30.993
			C399.897,305.044,381.824,292,361,292h-91.155l-39.932-38.792c-14.075-13.674-32.634-21.204-52.256-21.204L110,232v202.379
			C131.048,457.48,161.36,472,195,472h172.692l122.271-64.073C503.556,400.805,512,386.846,512,371.499
			C512,358.314,505.918,346.259,495.314,338.424z"/>
	</g>
</g>
<g>
</g>
<g>
</g>
<g>
</g>
<g>
</g>
<g>
</g>
<g>
</g>
<g>
</g>
<g>
</g>
<g>
</g>
<g>
</g>
<g>
</g>
<g>
</g>
<g>
</g>
<g>
</g>
<g>
</g>
</svg>
